<svg xmlns="http://www.w3.org/2000/svg" width="1032.146" height="933.975" viewBox="0 0 1032.146 933.975">
  <g id="Group_3645" data-name="Group 3645" transform="translate(9380.919 7222.23)">
    <path id="Path_1124" data-name="Path 1124" d="M435.723,423.951s39.375-49.1,50.479-124.019c12.265-82.743-4.785-192.272-111.635-275.316C170.656-133.865-2.513,10.43-2.513,10.43L-183.573,185.064s-5.462,25.506,0,50.389c3.118,14.2,14.844,25.247,24.382,33.321,25.848,21.881,63.393,11.378,63.393,11.378L128.239,131.688,258.548,255.771Z" transform="translate(-8863.5 -7147.5)" fill="none" stroke="red" stroke-linecap="round" stroke-linejoin="round" stroke-width="50"/>
    <path id="Path_1125" data-name="Path 1125" d="M-8733.646-6841.643l192.868,195.915s47.356,5,70.645-13.128,23.756-57.516,23.756-57.516" fill="none" stroke="red" stroke-linecap="round" stroke-linejoin="round" stroke-width="50"/>
    <path id="Path_1126" data-name="Path 1126" d="M-8729.113-6840.006l188.335,194.278s47.356,5,70.645-13.128,23.756-57.516,23.756-57.516" transform="translate(-88 85)" fill="none" stroke="red" stroke-linecap="round" stroke-linejoin="round" stroke-width="50"/>
    <path id="Path_1127" data-name="Path 1127" d="M-8885.181-7142.207s-212.893-122.241-390.074,59.061c-83.63,85.574-87.75,191.347-75.432,265.5,6.4,32.512,27.5,83.2,58.108,123.982,50.029,66.659,116.378,119.745,116.378,119.745" fill="none" stroke="red" stroke-linecap="round" stroke-linejoin="round" stroke-width="50"/>
    <path id="Path_1128" data-name="Path 1128" d="M-9073.865-6751.638l-115.818,96.215s-9.419,6.883-10.667,16.282c-2.133,16.053,4.8,40.9,16.889,55.057,18.8,22.011,62.7,19.712,62.7,19.712l65.088-49.28,63.652-58.2s5.472-47.228-18.187-66.646c-10.5-8.622-20.224-16.708-32.493-18.024C-9057.5-6758.108-9073.865-6751.638-9073.865-6751.638Z" transform="translate(0.979)" fill="none" stroke="red" stroke-linecap="round" stroke-linejoin="round" stroke-width="50"/>
    <path id="Path_1129" data-name="Path 1129" d="M-9063.537-6751.562l-125.793,103.668s-13.666,53.149,6.758,76.865,68.095,21.239,68.095,21.239l70.693-53.1,69.134-62.706s5.942-50.886-19.752-71.81S-9063.537-6751.562-9063.537-6751.562Z" transform="translate(83.001 72.701)" fill="none" stroke="red" stroke-linecap="round" stroke-linejoin="round" stroke-width="50"/>
    <path id="Path_1130" data-name="Path 1130" d="M-9065.439-6751.539-9189.4-6645.506s-13.467,54.361,6.659,78.618,67.1,21.723,67.1,21.723l69.661-54.309,68.124-64.135s5.855-52.047-19.464-73.447S-9065.439-6751.539-9065.439-6751.539Z" transform="translate(173.001 156.927)" fill="none" stroke="red" stroke-linecap="round" stroke-linejoin="round" stroke-width="50"/>
    <path id="Path_1131" data-name="Path 1131" d="M-9071.715-6751.644l-117.9,95.589s-12.81,49.007,6.333,70.875,63.821,19.583,63.821,19.583l66.256-48.96,64.795-57.818s5.569-46.921-18.514-66.214S-9071.715-6751.644-9071.715-6751.644Z" transform="translate(269.161 252.221)" fill="none" stroke="red" stroke-linecap="round" stroke-linejoin="round" stroke-width="50"/>
    <path id="Path_1132" data-name="Path 1132" d="M-8644.437-6550.117s-4.75,37.666-26.945,57.667-74.187,14.792-74.187,14.792" transform="translate(17.372 0.031)" fill="none" stroke="red" stroke-linecap="round" stroke-linejoin="round" stroke-width="50"/>
  </g>
</svg>
